<svg width="265" height="68" viewBox="0 0 265 68" fill="none" xmlns="http://www.w3.org/2000/svg">
<path d="M223.708 52C223.195 52 222.798 51.8367 222.518 51.51C222.238 51.1833 222.145 50.7633 222.238 50.25L232.108 4.04999C232.201 3.53665 232.435 3.11665 232.808 2.78999C233.228 2.46332 233.695 2.29999 234.208 2.29999H243.168C243.635 2.29999 244.008 2.46332 244.288 2.78999C244.568 3.11665 244.661 3.53665 244.568 4.04999L241.208 19.66C242.701 18.2133 244.358 17.07 246.178 16.23C248.045 15.3433 250.191 14.9 252.618 14.9C255.465 14.9 257.868 15.5067 259.828 16.72C261.788 17.9333 263.165 19.73 263.958 22.11C264.751 24.4433 264.775 27.3133 264.028 30.72L259.828 50.25C259.735 50.7633 259.478 51.1833 259.058 51.51C258.685 51.8367 258.265 52 257.798 52H248.768C248.255 52 247.858 51.8367 247.578 51.51C247.298 51.1833 247.205 50.7633 247.298 50.25L251.358 31.14C251.825 28.9467 251.708 27.2667 251.008 26.1C250.308 24.8867 248.955 24.28 246.948 24.28C245.641 24.28 244.428 24.5367 243.308 25.05C242.188 25.5633 241.231 26.3567 240.438 27.43C239.645 28.4567 239.085 29.6933 238.758 31.14L234.768 50.25C234.675 50.7633 234.418 51.1833 233.998 51.51C233.578 51.8367 233.135 52 232.668 52H223.708Z" fill="white"/>
<path d="M192.641 67.4C189.188 67.4 186.364 66.9334 184.171 66C181.978 65.0667 180.274 63.9467 179.061 62.64C177.848 61.3334 177.031 60.0267 176.611 58.72C176.191 57.46 176.028 56.4567 176.121 55.71C176.214 55.1967 176.471 54.7767 176.891 54.45C177.264 54.1234 177.684 53.96 178.151 53.96H187.181C187.648 53.96 187.998 54.0534 188.231 54.24C188.464 54.4734 188.604 54.8467 188.651 55.36C188.791 55.8734 188.978 56.41 189.211 56.97C189.491 57.53 189.958 57.9734 190.611 58.3C191.264 58.6734 192.221 58.86 193.481 58.86C194.741 58.86 195.884 58.6267 196.911 58.16C197.984 57.74 198.894 57.0167 199.641 55.99C200.434 55.01 201.018 53.68 201.391 52L202.371 47.31C200.971 48.4767 199.478 49.4334 197.891 50.18C196.304 50.88 194.321 51.23 191.941 51.23C189.514 51.23 187.438 50.88 185.711 50.18C183.984 49.48 182.608 48.43 181.581 47.03C180.601 45.63 179.948 43.9267 179.621 41.92C179.341 39.9134 179.411 37.6034 179.831 34.99C179.924 34.29 180.018 33.6834 180.111 33.17C180.251 32.6567 180.414 32.05 180.601 31.35C181.254 28.83 182.094 26.5667 183.121 24.56C184.194 22.5534 185.454 20.8267 186.901 19.38C188.348 17.9334 190.028 16.8367 191.941 16.09C193.854 15.2967 196.024 14.9 198.451 14.9C200.971 14.9 203.118 15.39 204.891 16.37C206.664 17.3034 207.948 18.4934 208.741 19.94L209.301 17.35C209.395 16.8834 209.651 16.4867 210.071 16.16C210.491 15.7867 210.958 15.6 211.471 15.6H219.521C220.035 15.6 220.408 15.7867 220.641 16.16C220.921 16.4867 221.014 16.8834 220.921 17.35L213.851 51.02C213.291 53.68 212.451 56.0134 211.331 58.02C210.211 60.0734 208.788 61.8 207.061 63.2C205.334 64.6 203.258 65.65 200.831 66.35C198.451 67.05 195.721 67.4 192.641 67.4ZM196.701 42.13C198.194 42.13 199.478 41.8034 200.551 41.15C201.671 40.4967 202.581 39.6567 203.281 38.63C204.028 37.6034 204.564 36.5067 204.891 35.34C204.984 34.8267 205.124 34.1034 205.311 33.17C205.544 32.2367 205.684 31.5367 205.731 31.07C205.918 29.8567 205.894 28.7367 205.661 27.71C205.474 26.6834 204.984 25.8667 204.191 25.26C203.444 24.6067 202.324 24.28 200.831 24.28C199.384 24.28 198.124 24.6067 197.051 25.26C195.978 25.9134 195.091 26.8 194.391 27.92C193.738 29.04 193.224 30.2767 192.851 31.63C192.711 32.0967 192.571 32.61 192.431 33.17C192.338 33.73 192.268 34.2667 192.221 34.78C191.988 36.1334 191.941 37.37 192.081 38.49C192.221 39.61 192.641 40.4967 193.341 41.15C194.088 41.8034 195.208 42.13 196.701 42.13Z" fill="white"/>
<path d="M159.382 52C158.869 52 158.472 51.8367 158.192 51.51C157.912 51.1833 157.819 50.7633 157.912 50.25L164.912 17.35C165.005 16.8367 165.262 16.4167 165.682 16.09C166.102 15.7633 166.569 15.6 167.082 15.6H175.342C175.809 15.6 176.159 15.7633 176.392 16.09C176.672 16.4167 176.765 16.8367 176.672 17.35L169.742 50.25C169.649 50.7633 169.392 51.1833 168.972 51.51C168.552 51.8367 168.109 52 167.642 52H159.382ZM168.132 10.35C167.619 10.35 167.222 10.1867 166.942 9.85999C166.709 9.53332 166.615 9.11332 166.662 8.59999L168.062 2.36998C168.155 1.85665 168.412 1.43665 168.832 1.10998C169.252 0.736653 169.695 0.549988 170.162 0.549988H178.562C179.075 0.549988 179.449 0.736653 179.682 1.10998C179.962 1.43665 180.055 1.85665 179.962 2.36998L178.632 8.59999C178.539 9.11332 178.282 9.53332 177.862 9.85999C177.442 10.1867 176.999 10.35 176.532 10.35H168.132Z" fill="white"/>
<path d="M107.924 52C107.457 52 107.084 51.8367 106.804 51.51C106.524 51.1833 106.43 50.7633 106.524 50.25L116.184 4.75C116.277 4.23667 116.534 3.81667 116.954 3.49C117.374 3.16333 117.817 3 118.284 3H127.314C127.827 3 128.224 3.16333 128.504 3.49C128.784 3.81667 128.877 4.23667 128.784 4.75L125.144 21.62H142.434L146.004 4.75C146.097 4.23667 146.33 3.81667 146.704 3.49C147.124 3.16333 147.59 3 148.104 3H157.134C157.647 3 158.044 3.16333 158.324 3.49C158.604 3.81667 158.697 4.23667 158.604 4.75L148.874 50.25C148.78 50.7633 148.524 51.1833 148.104 51.51C147.73 51.8367 147.287 52 146.774 52H137.744C137.23 52 136.834 51.8367 136.554 51.51C136.32 51.1833 136.25 50.7633 136.344 50.25L140.054 32.82H122.834L119.054 50.25C118.96 50.7633 118.704 51.1833 118.284 51.51C117.91 51.8367 117.467 52 116.954 52H107.924Z" fill="white"/>
<path d="M67.0773 65.3C66.5173 65.3 66.144 65.0433 65.9573 64.53C65.7706 64.0633 65.8406 63.5733 66.1673 63.06L74.7073 49.62L67.9173 17.63C67.824 17.1166 67.9406 16.65 68.2673 16.23C68.594 15.81 69.1073 15.6 69.8073 15.6H77.2273C77.834 15.6 78.254 15.7633 78.4873 16.09C78.7673 16.37 78.9306 16.6966 78.9773 17.07L82.8973 37.44L95.7073 17.07C95.894 16.6966 96.174 16.37 96.5473 16.09C96.9673 15.7633 97.4806 15.6 98.0873 15.6H106.417C106.977 15.6 107.351 15.8333 107.537 16.3C107.771 16.72 107.747 17.1866 107.467 17.7L77.7173 63.83C77.484 64.2033 77.1573 64.53 76.7373 64.81C76.364 65.1366 75.874 65.3 75.2673 65.3H67.0773Z" fill="#00E5FF"/>
<path d="M44.88 52C44.3667 52 43.97 51.8367 43.69 51.51C43.41 51.1833 43.3167 50.7633 43.41 50.25L53.28 4.04999C53.3733 3.53665 53.6067 3.11665 53.98 2.78999C54.4 2.46332 54.8667 2.29999 55.38 2.29999H63.64C64.1067 2.29999 64.48 2.46332 64.76 2.78999C65.04 3.11665 65.1333 3.53665 65.04 4.04999L55.24 50.25C55.1467 50.7633 54.89 51.1833 54.47 51.51C54.05 51.8367 53.6067 52 53.14 52H44.88Z" fill="#00E5FF"/>
<path d="M2.24018 52C1.77351 52 1.40018 51.8367 1.12018 51.51C0.840176 51.1833 0.746842 50.7633 0.840176 50.25L10.5002 4.75C10.5935 4.23667 10.8502 3.81667 11.2702 3.49C11.6902 3.16333 12.1335 3 12.6002 3H44.8002C45.3135 3 45.6868 3.16333 45.9202 3.49C46.2002 3.81667 46.2935 4.23667 46.2002 4.75L44.7302 11.82C44.6368 12.3333 44.3802 12.7533 43.9602 13.08C43.5402 13.4067 43.0735 13.57 42.5602 13.57H21.0002L18.8302 23.86H38.9902C39.5035 23.86 39.8768 24.0467 40.1102 24.42C40.3902 24.7467 40.4835 25.1667 40.3902 25.68L38.8502 32.68C38.8035 33.1467 38.5702 33.5667 38.1502 33.94C37.7302 34.2667 37.2635 34.43 36.7502 34.43H16.5902L13.1602 50.25C13.0668 50.7633 12.8102 51.1833 12.3902 51.51C12.0168 51.8367 11.5735 52 11.0602 52H2.24018Z" fill="#00E5FF"/>
</svg>
