<svg width="16" height="16" viewBox="0 0 16 16" fill="none" xmlns="http://www.w3.org/2000/svg">
<path d="M8 0C3.58172 0 0 3.58172 0 8C0 12.4183 3.58172 16 8 16C12.4183 16 16 12.4183 16 8C16 3.58172 12.4183 0 8 0ZM11.4489 11.4472C9.54506 13.3509 6.45841 13.3509 4.55459 11.4472C3.60641 10.499 3.13047 9.25737 3.12675 8.01462C3.1255 7.59422 3.461 7.24213 3.88141 7.23834C4.30531 7.2345 4.65019 7.577 4.65019 8.00003H4.65175C4.65175 8.85828 4.97844 9.71656 5.63184 10.3699C6.93862 11.6767 9.06487 11.6767 10.3717 10.3699C11.6837 9.05791 11.6837 6.94212 10.3717 5.63009C9.06487 4.32331 6.93862 4.32334 5.63184 5.63009C5.86206 5.86031 5.74281 6.25425 5.42353 6.31809L4.077 6.58741C3.79175 6.64447 3.54025 6.39297 3.59731 6.10772L3.86663 4.76119C3.93047 4.44191 4.32441 4.32266 4.55463 4.55288C6.45844 2.64906 9.54509 2.64906 11.4489 4.55288C13.348 6.45197 13.348 9.54803 11.4489 11.4472ZM9.53938 8.22809C9.81262 8.38584 9.90625 8.73525 9.74847 9.0085C9.59072 9.28175 9.24131 9.37538 8.96806 9.21759L7.71606 8.49475L7.71609 8.49469C7.54537 8.39591 7.43041 8.21144 7.43041 8V5.98303C7.43041 5.66753 7.68619 5.41175 8.00169 5.41175C8.31719 5.41175 8.57297 5.66753 8.57297 5.98303V7.67019L9.53938 8.22809Z" fill="#00E5FF"/>
</svg>
