<svg width="12" height="14" viewBox="0 0 12 14" fill="none" xmlns="http://www.w3.org/2000/svg">
<path fill-rule="evenodd" clip-rule="evenodd" d="M6.42726 0.0723329C6.14994 -0.024111 5.85008 -0.024111 5.57276 0.0723329L1.48834 1.49268C1.14048 1.61366 0.857444 1.88174 0.708515 2.23131C-1.07224 6.41135 0.613483 11.3133 4.5352 13.3589L5.55338 13.8901C5.83456 14.0366 6.16546 14.0366 6.44664 13.8901L7.46482 13.3589C11.3865 11.3133 13.0722 6.41135 11.2915 2.23131C11.1426 1.88174 10.8595 1.61366 10.5116 1.49268L6.42726 0.0723329ZM9.09462 5.43467C9.32979 5.20856 9.34469 4.82639 9.12797 4.58106C8.91126 4.33574 8.54492 4.32015 8.30975 4.54626L5.32964 7.41163L4.08477 6.16545C3.85401 5.93445 3.48747 5.94234 3.26605 6.18309C3.04463 6.42384 3.0522 6.80626 3.28295 7.03718L4.92068 8.67674C5.14149 8.89776 5.48906 8.90138 5.71404 8.68504L9.09462 5.43467Z" fill="#19D588"/>
</svg>
